# xmcd
#
# Track frame offsets:
#	150
#	9811
#	20723
#	32403
#	49879
#	64458
#	81161
#	101804
#	113907
#	128585
#	141739
#	149814
#	161246
#	175282
#
# Disc length: 2557 seconds
#
# Revision: 1
# Processed by: cddbd v1.5.2PL0 Copyright (c) Steve Scherf et al.
# Submitted via: audiograbber 1.83.01
#
DISCID=cf09fb0e
DTITLE=Johnny Cash - American III Solitary Man
DYEAR=2000
DGENRE=Country
TTITLE0=I Won't Back Down
TTITLE1=Solitary Man
TTITLE2=That Lucky Old Sun (Just Rolls Around Heaven All Day)
TTITLE3=One
TTITLE4=Nobody
TTITLE5=I See a Darkness
TTITLE6=The Mercy Seat
TTITLE7=Would You Lay with Me (In a Field of Stone)
TTITLE8=Field of Diamonds
TTITLE9=Before My Time
TTITLE10=Country Trash
TTITLE11=Mary of the Wild Moor
TTITLE12=I'm Leaving Now
TTITLE13=Wayfaring Stranger
EXTD=
EXTT0=
EXTT1=
EXTT2=
EXTT3=
EXTT4=
EXTT5=
EXTT6=
EXTT7=
EXTT8=
EXTT9=
EXTT10=
EXTT11=
EXTT12=
EXTT13=
PLAYORDER=
